<svg width="197" height="105" viewBox="0 0 197 105" fill="none" xmlns="http://www.w3.org/2000/svg">
<path d="M51.2172 0H60.2792V55.9997H51.2172V0Z" fill="white"/>
<path d="M91.7983 38.2529C91.7983 46.929 84.7063 47.7177 82.3423 47.7177C76.8263 47.7177 76.0383 42.591 76.0383 39.8304V18.1404H66.9763V39.436C66.9763 44.5628 68.5523 49.2951 71.7043 52.0557C74.4623 54.8162 78.0083 55.9993 82.3423 55.9993C85.4943 55.9993 89.4343 55.2106 91.7983 52.8444V55.9993H100.86V18.1404H91.7983V38.2529Z" fill="white"/>
<path d="M118.592 4.33813H109.53V18.1409H102.832V26.8169H109.53V55.9998H118.592V26.8169H125.29V18.1409H118.592V4.33813Z" fill="white"/>
<path d="M153.661 44.5634C151.691 46.1409 148.933 47.324 146.175 47.324C139.871 47.324 135.537 42.5916 135.537 36.2818C135.537 29.9719 139.871 25.6339 146.175 25.6339C148.933 25.6339 151.691 26.4227 153.661 28.3945L154.843 29.5776L161.147 23.6621L159.571 22.479C156.025 19.3241 151.297 17.3523 146.175 17.3523C135.143 17.3523 126.869 25.6339 126.869 36.6761C126.869 47.7183 135.143 56 146.175 56C151.297 56 156.025 54.0282 159.571 50.8733L161.147 49.6902L154.843 43.3803L153.661 44.5634Z" fill="white"/>
<path d="M193.059 21.2957C190.301 18.5351 187.543 17.352 183.209 17.352C180.057 17.352 176.905 18.1407 174.541 20.5069V0H165.479V55.9997H174.541V35.0984C174.541 26.4224 180.451 25.6337 182.815 25.6337C188.331 25.6337 187.937 30.7604 187.937 33.521V55.6053H196.999V33.9153C196.999 28.7886 195.817 24.0562 193.059 21.2957Z" fill="white"/>
<path d="M145.783 42.9856C149.265 42.9856 152.087 40.1606 152.087 36.6758C152.087 33.191 149.265 30.366 145.783 30.366C142.302 30.366 139.479 33.191 139.479 36.6758C139.479 40.1606 142.302 42.9856 145.783 42.9856Z" fill="#00E56D"/>
<path d="M38.6121 42.1966C35.4601 45.3515 30.7321 47.3234 25.6101 47.3234C15.7601 47.3234 8.66807 39.4361 8.66807 28.7883C8.66807 18.1404 15.7601 10.2531 26.0041 10.2531C30.7321 10.2531 35.4601 12.225 39.0061 15.7742L40.1881 16.9573L46.0981 11.0419L44.9161 9.85878C39.7941 4.73204 33.0961 1.97149 26.0041 1.97149C11.0321 1.57713 6.10352e-05 13.4081 6.10352e-05 28.7883C6.10352e-05 44.1685 11.0321 55.9994 25.6101 55.9994C32.7021 55.9994 39.7941 53.2388 44.5221 48.1121L45.7041 46.929L39.7941 41.0135L38.6121 42.1966Z" fill="white"/>
<path d="M15.1073 75.8909L18.2749 85.6396H28.5253L20.2325 91.6647L23.4001 101.413L15.1073 95.3884L6.81452 101.413L9.98209 91.6647L1.6893 85.6396H11.9397L15.1073 75.8909Z" fill="#00E56D"/>
<path d="M45.4882 75.8909L48.6558 85.6396H58.9062L50.6135 91.6647L53.781 101.413L45.4882 95.3884L37.1954 101.413L40.363 91.6647L32.0702 85.6396H42.3207L45.4882 75.8909Z" fill="#00E56D"/>
<path d="M75.8692 75.8909L79.0367 85.6396H89.2872L80.9944 91.6647L84.1619 101.413L75.8692 95.3884L67.5764 101.413L70.7439 91.6647L62.4511 85.6396H72.7016L75.8692 75.8909Z" fill="#00E56D"/>
<path d="M106.25 75.8909L109.418 85.6396H119.668L111.375 91.6647L114.543 101.413L106.25 95.3884L97.9573 101.413L101.125 91.6647L92.8321 85.6396H103.083L106.25 75.8909Z" fill="#00E56D"/>
<path d="M136.631 75.8909L139.799 85.6396H150.049L141.756 91.6647L144.924 101.413L136.631 95.3884L128.338 101.413L131.506 91.6647L123.213 85.6396H133.464L136.631 75.8909Z" fill="#00E56D"/>
<path d="M187.99 98.1357C186.706 98.1357 185.57 97.8929 184.582 97.4073C183.602 96.9216 182.817 96.2582 182.227 95.4171C181.638 94.5759 181.287 93.622 181.174 92.5554H184.907C185.046 93.3098 185.388 93.9125 185.935 94.3635C186.481 94.8144 187.179 95.0399 188.029 95.0399C189.408 95.0399 190.431 94.4849 191.099 93.3749C191.766 92.2649 192.1 90.8037 192.1 88.9913H192.074C191.597 89.7284 190.964 90.2877 190.175 90.6693C189.386 91.0422 188.489 91.2286 187.483 91.2286C186.234 91.2286 185.12 90.9511 184.14 90.3961C183.168 89.8325 182.401 89.065 181.837 88.0938C181.282 87.1225 181.005 86.0125 181.005 84.7638C181.005 83.4457 181.308 82.288 181.915 81.2907C182.531 80.2935 183.376 79.5174 184.452 78.9624C185.536 78.4074 186.776 78.1299 188.172 78.1299C190.591 78.1299 192.469 78.9624 193.804 80.6274C195.14 82.2923 195.807 84.6294 195.807 87.6385C195.807 89.7631 195.508 91.6145 194.91 93.1928C194.32 94.7624 193.444 95.9807 192.282 96.8479C191.12 97.7064 189.69 98.1357 187.99 98.1357ZM188.159 88.2108C188.801 88.2108 189.377 88.0591 189.889 87.7556C190.409 87.452 190.817 87.0401 191.112 86.5198C191.415 85.9995 191.567 85.4098 191.567 84.7508C191.567 84.0917 191.42 83.5021 191.125 82.9817C190.83 82.4528 190.427 82.0365 189.915 81.733C189.403 81.4295 188.831 81.2777 188.198 81.2777C187.235 81.2777 186.429 81.6116 185.779 82.2793C185.128 82.9384 184.803 83.7665 184.803 84.7638C184.803 85.7524 185.124 86.5762 185.766 87.2353C186.407 87.8856 187.205 88.2108 188.159 88.2108Z" fill="white"/>
<path d="M175.138 101.869L176.1 94.6626H179.782L177.817 101.869H175.138Z" fill="white"/>
<path d="M159.216 93.6481V90.5523L167.749 78.4421H172.653V90.5393H175.189V93.6481H172.653V97.8236H168.894V93.6481H159.216ZM168.894 90.5393V82.2664H168.868L163.079 90.5133V90.5393H168.894Z" fill="white"/>
</svg>
